<svg id="Layer_1" data-name="Layer 1" xmlns="http://www.w3.org/2000/svg" viewBox="0 0 442.31 385.9"><defs><style>.cls-1{fill:#fff;}</style></defs><g id="Layer_1-2" data-name="Layer_1"><path class="cls-1" d="M11.71,101C-6.37,131.85-4.68,177.45,25,197.47c11.83,8,27.18,11.56,35.64,23.06,10.43,14.17,6,33.75,4.4,51.28-2.54,27.94,4.28,57.73,23.34,78.32C233.15,506.48,658.8,105.51,305.45,8.8,198.73-11.53,63-2.7,11.71,101ZM87.94,38c.45-.79,2-1.26,4.79-1.43s5.72-.2,8.91-.08,6.13.28,8.82.5,4.26.34,4.71.34l27.4-1.18a24.74,24.74,0,0,1,4.28.25c.84.17,1.35,1.23,1.52,3.2a66.19,66.19,0,0,1-.34,9.74q-.59,6.81-1.26,19.92a15.87,15.87,0,0,0-6.3-1.26q-3.78-.07-7.23-.08a22.66,22.66,0,0,1-5.88-.67,2.51,2.51,0,0,1-2.11-3,3.28,3.28,0,0,0,3.11-.59,5.35,5.35,0,0,0,1.94-2.69,4.54,4.54,0,0,0-.25-3.28c-.51-1.12-1.66-1.9-3.45-2.35a6.26,6.26,0,0,0-4.88,1,9.47,9.47,0,0,0-3.27,4,10.21,10.21,0,0,0-.84,5.21A6.06,6.06,0,0,0,120,69.9,10.68,10.68,0,0,0,125.17,72c2,.28,4,.58,6,.92a23.61,23.61,0,0,1,6.05,1.85,12.34,12.34,0,0,1,5.13,4.71,19.64,19.64,0,0,1,3,7.31,48,48,0,0,1,.93,8.65q.09,4.55-.17,9.16c-.17,3.09-.25,6-.25,8.66a12.64,12.64,0,0,0-4-1.6q-2.44-.58-5.38-1.42a39.7,39.7,0,0,1-6.13-2.36,20.47,20.47,0,0,1-6.06-4.54,14.12,14.12,0,0,1-3.86-6,15.83,15.83,0,0,1-.67-5.38,11.69,11.69,0,0,1,1.51-5.21c-.9,1.24-1,2.33-.42,3.28a4.51,4.51,0,0,0,2.6,1.93,4.89,4.89,0,0,0,3.53-.33,5.22,5.22,0,0,0,2.69-3.36A7,7,0,0,0,130,85,9.27,9.27,0,0,0,129,81.67a6,6,0,0,0-2.27-2.35,4.63,4.63,0,0,0-3.27-.51,7.22,7.22,0,0,0-4,2.36,15.64,15.64,0,0,0-3.2,5.29,23.84,23.84,0,0,0-1.43,7.65,27.71,27.71,0,0,0,1.52,9.58,39.11,39.11,0,0,0,6.8,12q4.8,6,9.67,12.35a106.43,106.43,0,0,1,8.74,13.45,33,33,0,0,1,4,15.46,51.23,51.23,0,0,1-7.48.76q-5.13.26-11.43.25t-13-.08q-6.73-.09-12.27-.25t-9.25-.34a22.84,22.84,0,0,1-4-.34c-.23,0-.39-1.4-.51-4.2s-.14-6.33-.08-10.59.17-8.91.34-14,.33-9.8.5-14.29.31-8.34.42-11.59.22-5.21.34-5.89q.16-3.85,0-9.33t-.59-11.59q-.42-6.14-.76-12.36t-.59-11.51c-.17-3.53-.19-6.5-.08-8.91A12.19,12.19,0,0,1,87.94,38ZM211.15,89.74q-.35,12.6,0,24.12t.84,20.59c.33,6.05.59,11,.75,14.87s0,6.2-.42,7c-.22.45-1.31.78-3.27,1s-4.49.39-7.57.5-6.53.17-10.34.17-7.62,0-11.43-.08l-11-.17q-5.29-.09-9-.25a7.33,7.33,0,0,1-4.79-2,7.52,7.52,0,0,1-2.27-4.71,116.4,116.4,0,0,1-.5-11.85,73.09,73.09,0,0,1,1.6-14.87,56.33,56.33,0,0,1,5.46-15,37.26,37.26,0,0,1,11.26-12.69q8.57-6,10.67-14.45A46,46,0,0,0,181.9,64a12.39,12.39,0,0,0-3.19-7.23,9,9,0,0,0-5.21-2.85,6.16,6.16,0,0,0-4.8,1.34q-2.1,1.68-1.93,5.55t1.77,5a4.92,4.92,0,0,0,3.44,1,13.53,13.53,0,0,0,4.88-1.51q2.17,8.05-.34,14.28a28.53,28.53,0,0,1-6.81,10.26,23.86,23.86,0,0,1-8.91,5.54c-3.08,1-5.23,1.07-6.47.17.12-3.92,0-8.91-.33-15s-.68-12.07-1-18.07-.56-11.32-.67-16,.16-7.53.84-8.65c.44-.79,2-1.26,4.7-1.43a88.12,88.12,0,0,1,8.83-.08q4.78.16,8.91.5c2.74.22,4.34.34,4.79.34L208,36.12c1.46,0,2.61,0,3.45.08a1.94,1.94,0,0,1,1.76,1.35,12,12,0,0,1,.42,4.37c-.05,2.07-.22,5.1-.5,9.07s-.62,9.11-1,15.38-.7,14.07-.92,23.37Zm-27.4,34.12a28,28,0,0,1-.09-5.72,24.94,24.94,0,0,1,1.43-6.13,63,63,0,0,1,3.2-7.23A78,78,0,0,1,193.67,96c-1.24.22-2.83,1.29-4.8,3.19a45.85,45.85,0,0,0-5.71,6.89,51.52,51.52,0,0,0-4.79,8.66,21.32,21.32,0,0,0-2,8.49,13.47,13.47,0,0,0,2.19,7.65c1.45,2.18,3.81,3.27,7.06,3.27a6.44,6.44,0,0,0,3.86-1.34c1.24-.9,1.85-2.47,1.85-4.71a6.07,6.07,0,0,0-.75-3,5.8,5.8,0,0,0-1.94-2.1,3.93,3.93,0,0,0-2.44-.68,3.52,3.52,0,0,0-2.43,1.6ZM245.44,37.3c.67,0,1.73-.06,3.19-.17s3-.2,4.62-.25a19.65,19.65,0,0,1,4.29.25c1.23.22,1.9.73,2,1.51q.68,3.36-1.26,10.76t-5,16.81q-3,9.41-6.48,19.91t-6,20a109.64,109.64,0,0,0-3.28,17.06q-.75,7.56,1.76,11.26a13.63,13.63,0,0,0,5.72,5,13.89,13.89,0,0,0,6.47,1.35,9.24,9.24,0,0,0,5.21-1.77,4.55,4.55,0,0,0,1.77-4.45,6.09,6.09,0,0,0-1.77-4,4.5,4.5,0,0,0-3.28-1.18,6.21,6.21,0,0,0-3.61,1.51,8.33,8.33,0,0,0-2.61,3.95,6.25,6.25,0,0,1-4.11-4.37,13.83,13.83,0,0,1,.25-6.89,39.22,39.22,0,0,1,3.19-8.07,61.52,61.52,0,0,1,5-8,64.37,64.37,0,0,1,5.63-6.72,24.78,24.78,0,0,1,4.88-4.12,15.12,15.12,0,0,1,7.56-2.35A14.8,14.8,0,0,1,276,95.79q-.16,11.59.25,22.1t.92,18.66q.51,8.16.68,13.45t-.51,6.3c-.33.45-2,.81-4.87,1.09s-6.53.45-10.84.51-8.94,0-13.87,0-9.55-.14-13.87-.25-7.95-.23-10.92-.34l-4.79-.17c-.23,0-.37-1.43-.42-4.28s-.06-6.42,0-10.68.16-8.91.33-14,.31-9.8.42-14.29.25-8.34.42-11.59.25-5.21.25-5.89q.18-3.85,0-9.33t-.5-11.59q-.33-6.14-.67-12.36t-.59-11.51q-.25-5.3-.08-8.91a12.19,12.19,0,0,1,.84-4.79c.44-.79,1.87-1.23,4.28-1.35s5.13-.11,8.15,0,5.94.26,8.74.42,4.82.26,6.06.26Zm64.2,0c.68,0,1.74-.06,3.2-.17s3-.2,4.62-.25a19.69,19.69,0,0,1,4.29.25c1.23.22,1.9.73,2,1.51q.67,3.36-1.26,10.76t-5,16.81q-3,9.41-6.47,19.91t-6,20a109.64,109.64,0,0,0-3.28,17.06q-.76,7.56,1.76,11.26a13.63,13.63,0,0,0,5.72,5,13.89,13.89,0,0,0,6.47,1.35,9.24,9.24,0,0,0,5.21-1.77,4.55,4.55,0,0,0,1.77-4.45,6.09,6.09,0,0,0-1.77-4,4.5,4.5,0,0,0-3.28-1.18A6.21,6.21,0,0,0,314.1,131a8.33,8.33,0,0,0-2.61,3.95,6.25,6.25,0,0,1-4.11-4.37,13.72,13.72,0,0,1,.25-6.89,38.66,38.66,0,0,1,3.19-8.07,61.52,61.52,0,0,1,5-8,64.37,64.37,0,0,1,5.63-6.72,24.78,24.78,0,0,1,4.88-4.12,15.09,15.09,0,0,1,7.56-2.35,14.8,14.8,0,0,1,6.39,1.34q-.18,11.59.25,22.1t.92,18.66q.51,8.16.68,13.45t-.51,6.3c-.34.45-2,.81-4.87,1.09s-6.53.45-10.84.51-8.94,0-13.87,0-9.56-.14-13.87-.25-8-.23-10.92-.34l-4.8-.17c-.22,0-.36-1.43-.42-4.28s-.05-6.42,0-10.68.17-8.91.34-14,.31-9.8.42-14.29.25-8.34.42-11.59.25-5.21.25-5.89q.18-3.85,0-9.33t-.5-11.59q-.35-6.14-.67-12.36t-.59-11.51q-.26-5.3-.09-8.91a12.58,12.58,0,0,1,.84-4.79c.45-.79,1.88-1.23,4.29-1.35s5.13-.11,8.15,0,5.94.26,8.74.42,4.82.26,6.05.26ZM87.94,179c.45-.78,2-1.26,4.79-1.43s5.71-.19,8.91-.08,6.13.28,8.82.5,4.26.34,4.71.34l27.4-1.18a24.47,24.47,0,0,1,4.28.26c.84.16,1.35,1.23,1.52,3.19a66.35,66.35,0,0,1-.34,9.75q-.59,6.81-1.26,19.92a15.53,15.53,0,0,0-6.3-1.26c-2.53-.06-4.93-.09-7.23-.09a22.24,22.24,0,0,1-5.88-.67,2.51,2.51,0,0,1-2.11-3,3.31,3.31,0,0,0,3.11-.58,5.4,5.4,0,0,0,1.94-2.69,4.48,4.48,0,0,0-.26-3.28c-.5-1.12-1.65-1.91-3.44-2.36a6.26,6.26,0,0,0-4.88,1,9.39,9.39,0,0,0-3.27,3.95,10.24,10.24,0,0,0-.84,5.21,6.08,6.08,0,0,0,2.43,4.46,10.77,10.77,0,0,0,5.13,2.1q2.94.42,6,.92a24,24,0,0,1,6.05,1.85,12.41,12.41,0,0,1,5.13,4.71,19.78,19.78,0,0,1,3,7.31,48.06,48.06,0,0,1,.93,8.66c.05,3,0,6.08-.17,9.16s-.25,6-.25,8.65a12.41,12.41,0,0,0-4-1.59q-2.44-.58-5.38-1.43a41.16,41.16,0,0,1-6.14-2.35,20.73,20.73,0,0,1-6.05-4.54,14.24,14.24,0,0,1-3.86-6,15.86,15.86,0,0,1-.67-5.38,11.65,11.65,0,0,1,1.51-5.21c-.9,1.23-1,2.32-.42,3.28a4.55,4.55,0,0,0,2.6,1.93,5,5,0,0,0,3.53-.34,5.22,5.22,0,0,0,2.69-3.36A7,7,0,0,0,130,226a9.34,9.34,0,0,0-1.09-3.28,6.11,6.11,0,0,0-2.27-2.35,4.58,4.58,0,0,0-3.27-.5,7.25,7.25,0,0,0-4,2.35,15.84,15.84,0,0,0-3.19,5.3,23.73,23.73,0,0,0-1.43,7.64,27.67,27.67,0,0,0,1.52,9.58,39,39,0,0,0,6.8,12q4.8,6,9.67,12.36a106.31,106.31,0,0,1,8.74,13.44,33,33,0,0,1,4,15.47,51.56,51.56,0,0,1-7.48.75q-5.13.25-11.43.26t-13-.09q-6.73-.07-12.27-.25t-9.25-.34a24.75,24.75,0,0,1-4-.33q-.35,0-.51-4.2t-.08-10.59c0-4.26.17-8.91.33-13.95s.34-9.81.51-14.29.31-8.35.42-11.6.22-5.21.34-5.88q.16-3.87,0-9.33t-.59-11.6q-.42-6.13-.76-12.35t-.59-11.52c-.17-3.53-.19-6.5-.08-8.91a12.23,12.23,0,0,1,.84-4.79Zm92.28-.67q3.19.17,8.49-.08t10.33-.59c3.37-.23,6.36-.37,9-.42s4.11.08,4.45.42q.84.84.51,8.49t-1.18,22.44a16,16,0,0,1-3.87,9.91,9.84,9.84,0,0,1-8.4,3.7,20.26,20.26,0,0,1-8.74-1.85,14.65,14.65,0,0,1-4.79-3.7,9.81,9.81,0,0,1-2-3.86,14.68,14.68,0,0,1-.42-2.36,6.35,6.35,0,0,0,3.87-1.68,8.7,8.7,0,0,0,2.43-3.61,7.94,7.94,0,0,0,.34-4.29,5.37,5.37,0,0,0-2.44-3.53,3.1,3.1,0,0,0-4,.34,11.71,11.71,0,0,0-3.28,5.13,23.17,23.17,0,0,0-1.26,8,19.78,19.78,0,0,0,2.18,8.91,14,14,0,0,0,6.73,6.72,24.6,24.6,0,0,0,10.76,2.69,10.25,10.25,0,0,1,6,1.93,12.86,12.86,0,0,1,3.62,4.46,20.43,20.43,0,0,1,1.85,5.71,35.61,35.61,0,0,1,.5,5.72q-3.36-.33-7.73-.5a39.36,39.36,0,0,0-8.57.58,25.46,25.46,0,0,0-7.74,2.69,12.85,12.85,0,0,0-5.38,5.63,19.07,19.07,0,0,0-1.84,8.32,25.38,25.38,0,0,0,1.17,8,13.82,13.82,0,0,0,3.11,5.46q1.93,1.94,3.95.59a4.82,4.82,0,0,0,2.44-3.36,7.94,7.94,0,0,0-.34-4.29,9.47,9.47,0,0,0-2.43-3.7,6.18,6.18,0,0,0-3.87-1.76,10.9,10.9,0,0,1,1.85-5.55,12.77,12.77,0,0,1,4.37-4c2-1.24,4.93-2,8.74-2.19a10.62,10.62,0,0,1,9,3.7,16.14,16.14,0,0,1,3.95,10.25q.51,12.45,1,20.85c.34,5.6.22,8.85-.34,9.75-.33.56-2,.95-4.87,1.17s-6.53.37-10.84.42-8.94.06-13.87,0-9.55-.17-13.87-.33l-10.92-.42c-3-.12-4.57-.17-4.79-.17s-.37-1.4-.42-4.2-.06-6.34,0-10.59.17-8.88.33-13.87.31-9.72.42-14.2.26-8.35.42-11.6.26-5.27.26-6q.17-3.87,0-9.33c-.12-3.64-.28-7.51-.51-11.6s-.45-8.21-.67-12.35-.42-8-.59-11.43-.19-6.45-.08-8.91A12.54,12.54,0,0,1,153,179c.45-.78,1.87-1.26,4.28-1.43a80.2,80.2,0,0,1,8.16-.08c3,.11,5.94.28,8.74.51s4.82.33,6.05.33Zm63.87-.17a62.18,62.18,0,0,0,7.73.25c3-.05,6.17-.14,9.42-.25q6.56-.33,10.92,5.38a19.69,19.69,0,0,1,4,13.45q-.18,4.36-.34,9.66t-.51,11.68a50.78,50.78,0,0,1-6.8,1.35,44.26,44.26,0,0,1-8.66.17q-5.88-.34-8.91-2.19a13,13,0,0,1-4.37-4,10.08,10.08,0,0,1-1.68-5.72,6.35,6.35,0,0,0,3.87-1.68,8.76,8.76,0,0,0,2.43-3.61,7.66,7.66,0,0,0,.34-4.2,5.33,5.33,0,0,0-2.44-3.45,3.26,3.26,0,0,0-4.11.25,10.85,10.85,0,0,0-3.37,5,21.94,21.94,0,0,0-1.17,8,23.12,23.12,0,0,0,2.1,9.08,10.36,10.36,0,0,0,6.72,5.37,43.82,43.82,0,0,0,10.42,1.85c1,.23,2,.51,3.11.84l3.11,1a15,15,0,0,1,6.39,6.05,18.27,18.27,0,0,1,2.52,9.58q0,10.77.42,18.75t.67,14a88.88,88.88,0,0,1-.08,10.33A24.81,24.81,0,0,1,274,293c-.78,1.57-2.8,2.81-6.05,3.7a61,61,0,0,1-11.43,1.85q-6.55.51-13.87.5t-13.19-.33a9.69,9.69,0,0,1-4.88-1.35,13.33,13.33,0,0,1-4-3.53,17.83,17.83,0,0,1-2.69-5,18.61,18.61,0,0,1-1-6.22V270.68q0-6.46.34-12.86a49.91,49.91,0,0,1,7.06-1.42,46.27,46.27,0,0,1,9.41-.26q5.72.35,8.74,2.19a12.87,12.87,0,0,1,4.37,4,11.16,11.16,0,0,1,1.85,5.72,5.37,5.37,0,0,0-3.95,1.59,10,10,0,0,0-2.35,3.62,7.57,7.57,0,0,0-.34,4.2,5.34,5.34,0,0,0,2.44,3.53,3.08,3.08,0,0,0,4-.34,11.73,11.73,0,0,0,3.28-5,22.46,22.46,0,0,0,1.26-7.9,19.73,19.73,0,0,0-2.19-8.91,10,10,0,0,0-6.13-5.46,35.24,35.24,0,0,0-9.67-1.93h-1.17a31.29,31.29,0,0,1-3.7-.93,24.35,24.35,0,0,1-3.53-1.43,13.5,13.5,0,0,1-6.3-6,19,19,0,0,1-2.27-9.33q0-6.39-.42-12.86T217,208.32a96.8,96.8,0,0,1,.34-11.59,29.6,29.6,0,0,1,2.52-9.84,13.35,13.35,0,0,1,5.46-6.13,20.08,20.08,0,0,1,7.06-2.44,35.63,35.63,0,0,1,6.81-.34c2.13.12,3.75.17,4.87.17Zm63.37.17q3.19.17,8.49-.08t10.42-.59c3.42-.23,6.41-.37,9-.42s4.09.08,4.54.42q1,1,.25,12.27t-1.59,32.77h-3.37c-3.81-.22-6.72-1-8.74-2.26a13.76,13.76,0,0,1-4.37-4.12,11,11,0,0,1-1.85-5.55,6.7,6.7,0,0,0,3.95-1.68,7.84,7.84,0,0,0,2.44-3.61,8.27,8.27,0,0,0,.25-4.21,5.31,5.31,0,0,0-2.43-3.44,3,3,0,0,0-3.11-.25,7,7,0,0,0-2.86,2.77,17.59,17.59,0,0,0-2,5,18.78,18.78,0,0,0-.42,6.39q-.5,4.2-.59,9.83a66.48,66.48,0,0,0,1.1,12.36,69.19,69.19,0,0,0,4.11,14.7q3.12,8,6.64,15.72t6.64,14.37a59.77,59.77,0,0,1,4.12,10.84,9.46,9.46,0,0,1,.67,2.19,13.9,13.9,0,0,0,.51,2,3.7,3.7,0,0,1-.51,2.85,3.34,3.34,0,0,1-2.18,1.68,105.75,105.75,0,0,1-10.84.68q-7.15.17-15.05.08t-15.29-.34q-7.39-.24-11.43-.42a2.27,2.27,0,0,1-2.19-1.51,4,4,0,0,1-.5-3l.33-2a21.06,21.06,0,0,1,.51-2.19,59.77,59.77,0,0,1,4.12-10.84l6.72-14.37q3.61-7.72,6.72-15.72a68.67,68.67,0,0,0,4.12-14.7,66.28,66.28,0,0,0,1.09-16.73,71.46,71.46,0,0,0-1.43-10.5,13.27,13.27,0,0,0-.33-1.85,12.72,12.72,0,0,0-1.18-3.11,8.86,8.86,0,0,0-2.44-2.86,6.08,6.08,0,0,0-4.28-1.09,2.66,2.66,0,0,0-2.77,2.1,8.61,8.61,0,0,0,.33,4.37,11,11,0,0,0,2.61,4.37,6.17,6.17,0,0,0,4,2.1,10.9,10.9,0,0,1-1.85,5.55,13.44,13.44,0,0,1-4.37,4.12c-2,1.29-4.93,2-8.74,2.27h-3.19q-.35-6.55-.84-13.7t-.76-13.45q-.25-6.3-.25-10.76t.84-5.8c.45-.78,1.9-1.26,4.37-1.43a82,82,0,0,1,8.24-.08q4.53.17,8.74.5t5.88.34Z" transform="translate(0 0)"/></g></svg>