<?xml version="1.0" encoding="UTF-8"?>
<!DOCTYPE svg PUBLIC "-//W3C//DTD SVG 1.1//EN" "http://www.w3.org/Graphics/SVG/1.1/DTD/svg11.dtd">
<!-- Creator: CorelDRAW -->
<?xml-stylesheet href="Fall Fest_logo_orange.css" type="text/css"?>
<svg xmlns="http://www.w3.org/2000/svg" xml:space="preserve" width="16.6392mm" height="17.1553mm" version="1.1" style="shape-rendering:geometricPrecision; text-rendering:geometricPrecision; image-rendering:optimizeQuality; fill-rule:evenodd; clip-rule:evenodd"
viewBox="0 0 210.75 217.29"
 xmlns:xlink="http://www.w3.org/1999/xlink"
 xmlns:xodm="http://www.corel.com/coreldraw/odm/2003">
 <g id="Layer_x0020_1">
  <metadata id="CorelCorpID_0Corel-Layer"/>
  <path class="fil0" d="M0.75 1.53c0.37,-0.65 1.69,-1.04 3.96,-1.18 2.27,-0.14 4.72,-0.16 7.36,-0.07 2.64,0.09 5.07,0.23 7.29,0.42 2.22,0.18 3.52,0.28 3.89,0.28l22.64 -0.97c1.67,0 2.85,0.07 3.54,0.21 0.69,0.14 1.11,1.02 1.25,2.64 0.14,1.62 0.05,4.31 -0.28,8.05 -0.32,3.75 -0.67,9.24 -1.04,16.46 -1.39,-0.65 -3.12,-1 -5.21,-1.04 -2.08,-0.05 -4.07,-0.07 -5.97,-0.07 -1.9,0 -3.52,-0.18 -4.86,-0.56 -1.34,-0.37 -1.92,-1.2 -1.74,-2.5 0.93,0.28 1.78,0.12 2.57,-0.49 0.79,-0.6 1.32,-1.34 1.6,-2.22 0.28,-0.88 0.21,-1.78 -0.21,-2.71 -0.42,-0.93 -1.37,-1.57 -2.85,-1.94 -1.48,-0.28 -2.82,0 -4.03,0.83 -1.2,0.83 -2.11,1.92 -2.71,3.26 -0.6,1.34 -0.83,2.78 -0.69,4.31 0.14,1.53 0.81,2.75 2.01,3.68 1.2,0.93 2.62,1.5 4.24,1.74 1.62,0.23 3.29,0.49 5,0.76 1.71,0.28 3.38,0.79 5,1.53 1.62,0.74 3.03,2.04 4.24,3.89 1.2,1.76 2.04,3.77 2.5,6.04 0.46,2.27 0.72,4.65 0.76,7.15 0.05,2.5 0,5.02 -0.14,7.57 -0.14,2.55 -0.21,4.93 -0.21,7.15 -0.83,-0.55 -1.92,-1 -3.26,-1.32 -1.34,-0.32 -2.82,-0.72 -4.44,-1.18 -1.62,-0.46 -3.31,-1.11 -5.07,-1.94 -1.76,-0.83 -3.43,-2.08 -5,-3.75 -1.67,-1.67 -2.73,-3.33 -3.19,-5 -0.46,-1.67 -0.65,-3.15 -0.56,-4.44 0.09,-1.57 0.51,-3.01 1.25,-4.31 -0.74,1.02 -0.86,1.92 -0.35,2.71 0.51,0.79 1.23,1.32 2.15,1.6 0.93,0.28 1.9,0.18 2.92,-0.28 1.02,-0.46 1.76,-1.39 2.22,-2.78 0.28,-0.83 0.35,-1.74 0.21,-2.71 -0.14,-0.97 -0.44,-1.88 -0.9,-2.71 -0.46,-0.83 -1.09,-1.48 -1.87,-1.94 -0.79,-0.46 -1.69,-0.6 -2.71,-0.42 -1.11,0.18 -2.2,0.83 -3.26,1.94 -1.07,1.11 -1.94,2.57 -2.64,4.37 -0.69,1.81 -1.09,3.91 -1.18,6.32 -0.09,2.41 0.32,5.05 1.25,7.92 1.11,3.33 2.99,6.64 5.62,9.93 2.64,3.29 5.3,6.69 7.99,10.21 2.68,3.52 5.09,7.22 7.22,11.11 2.13,3.89 3.24,8.15 3.33,12.78 -1.3,0.28 -3.36,0.49 -6.18,0.63 -2.82,0.14 -5.97,0.21 -9.44,0.21 -3.47,0 -7.06,-0.02 -10.76,-0.07 -3.7,-0.05 -7.08,-0.12 -10.14,-0.21 -3.06,-0.09 -5.6,-0.18 -7.64,-0.28 -2.04,-0.09 -3.15,-0.18 -3.33,-0.28 -0.18,0 -0.32,-1.16 -0.42,-3.47 -0.09,-2.31 -0.12,-5.23 -0.07,-8.75 0.05,-3.52 0.14,-7.36 0.28,-11.53 0.14,-4.17 0.28,-8.1 0.42,-11.8 0.14,-3.7 0.25,-6.9 0.35,-9.58 0.09,-2.68 0.19,-4.3 0.28,-4.86 0.09,-2.13 0.09,-4.7 0,-7.71 -0.09,-3.01 -0.25,-6.2 -0.49,-9.58 -0.23,-3.38 -0.44,-6.78 -0.62,-10.21 -0.19,-3.43 -0.35,-6.6 -0.49,-9.51 -0.14,-2.92 -0.16,-5.37 -0.07,-7.36 0.09,-1.99 0.32,-3.31 0.69,-3.96zm101.79 42.77c-0.18,6.94 -0.18,13.59 0,19.93 0.19,6.34 0.42,12.01 0.7,17.01 0.28,5 0.49,9.1 0.62,12.29 0.14,3.19 0.02,5.12 -0.35,5.76 -0.18,0.37 -1.09,0.65 -2.71,0.83 -1.62,0.19 -3.7,0.32 -6.25,0.42 -2.55,0.09 -5.39,0.14 -8.54,0.14 -3.15,0 -6.3,-0.02 -9.44,-0.07 -3.15,-0.05 -6.18,-0.09 -9.1,-0.14 -2.92,-0.05 -5.39,-0.12 -7.43,-0.21 -1.57,-0.09 -2.89,-0.65 -3.96,-1.67 -1.06,-1.02 -1.69,-2.31 -1.87,-3.89 -0.28,-2.59 -0.42,-5.86 -0.42,-9.79 0,-3.94 0.44,-8.03 1.32,-12.29 0.88,-4.26 2.38,-8.4 4.51,-12.43 2.13,-4.03 5.23,-7.52 9.3,-10.48 4.72,-3.33 7.66,-7.31 8.82,-11.94 1.16,-4.63 1.37,-9.54 0.63,-14.72 -0.37,-2.59 -1.25,-4.58 -2.64,-5.97 -1.39,-1.39 -2.82,-2.18 -4.3,-2.36 -1.48,-0.19 -2.8,0.18 -3.96,1.11 -1.16,0.93 -1.69,2.45 -1.6,4.58 0.09,2.13 0.58,3.52 1.46,4.17 0.88,0.65 1.83,0.93 2.85,0.83 1.2,-0.09 2.55,-0.51 4.03,-1.25 1.2,4.44 1.11,8.38 -0.28,11.8 -1.39,3.42 -3.26,6.25 -5.62,8.47 -2.36,2.22 -4.81,3.75 -7.36,4.58 -2.55,0.83 -4.33,0.88 -5.35,0.14 0.09,-3.24 0,-7.36 -0.28,-12.36 -0.28,-5 -0.56,-9.98 -0.83,-14.93 -0.28,-4.95 -0.46,-9.35 -0.55,-13.19 -0.09,-3.84 0.14,-6.23 0.69,-7.15 0.37,-0.65 1.67,-1.04 3.89,-1.18 2.22,-0.14 4.65,-0.16 7.29,-0.07 2.64,0.09 5.09,0.23 7.36,0.42 2.27,0.18 3.59,0.28 3.96,0.28l22.77 -0.97c1.2,0 2.15,0.02 2.85,0.07 0.69,0.05 1.18,0.42 1.46,1.11 0.28,0.69 0.39,1.9 0.35,3.61 -0.05,1.71 -0.18,4.21 -0.42,7.5 -0.23,3.29 -0.51,7.52 -0.83,12.71 -0.32,5.18 -0.58,11.62 -0.76,19.3zm-22.64 28.19c-0.18,-1.57 -0.21,-3.15 -0.07,-4.72 0.14,-1.57 0.53,-3.26 1.18,-5.07 0.65,-1.8 1.53,-3.8 2.64,-5.97 1.11,-2.17 2.59,-4.61 4.44,-7.29 -1.02,0.18 -2.34,1.07 -3.96,2.64 -1.62,1.57 -3.19,3.47 -4.72,5.69 -1.53,2.22 -2.85,4.61 -3.96,7.15 -1.11,2.55 -1.67,4.88 -1.67,7.01 0,2.41 0.6,4.51 1.81,6.32 1.2,1.8 3.15,2.71 5.83,2.71 1.11,0 2.17,-0.37 3.19,-1.11 1.02,-0.74 1.53,-2.04 1.53,-3.89 0,-0.93 -0.21,-1.76 -0.63,-2.5 -0.42,-0.74 -0.95,-1.32 -1.6,-1.74 -0.65,-0.42 -1.32,-0.6 -2.01,-0.56 -0.7,0.05 -1.37,0.49 -2.01,1.32zm50.97 -71.52c0.56,0 1.44,-0.05 2.64,-0.14 1.2,-0.09 2.48,-0.16 3.82,-0.21 1.34,-0.05 2.52,0.02 3.54,0.21 1.02,0.19 1.57,0.6 1.67,1.25 0.37,1.85 0.02,4.81 -1.04,8.89 -1.07,4.07 -2.43,8.7 -4.1,13.89 -1.67,5.19 -3.45,10.67 -5.35,16.46 -1.9,5.79 -3.54,11.3 -4.93,16.53 -1.39,5.23 -2.29,9.93 -2.71,14.1 -0.42,4.17 0.07,7.27 1.46,9.3 1.3,1.94 2.87,3.33 4.72,4.17 1.85,0.83 3.63,1.2 5.35,1.11 1.71,-0.09 3.15,-0.58 4.31,-1.46 1.16,-0.88 1.64,-2.11 1.46,-3.68 -0.18,-1.48 -0.67,-2.57 -1.46,-3.26 -0.79,-0.69 -1.69,-1.02 -2.71,-0.97 -1.02,0.05 -2.01,0.46 -2.99,1.25 -0.97,0.79 -1.69,1.88 -2.15,3.26 -1.85,-0.74 -2.99,-1.94 -3.4,-3.61 -0.42,-1.67 -0.35,-3.56 0.21,-5.69 0.55,-2.13 1.43,-4.35 2.64,-6.67 1.2,-2.31 2.57,-4.51 4.1,-6.6 1.53,-2.08 3.08,-3.93 4.65,-5.55 1.57,-1.62 2.92,-2.75 4.03,-3.4 2.22,-1.3 4.31,-1.94 6.25,-1.94 1.94,0 3.7,0.37 5.28,1.11 -0.09,6.39 -0.02,12.48 0.21,18.26 0.23,5.79 0.49,10.93 0.76,15.42 0.28,4.49 0.46,8.19 0.55,11.11 0.09,2.92 -0.05,4.65 -0.42,5.21 -0.28,0.37 -1.62,0.67 -4.03,0.9 -2.41,0.23 -5.39,0.37 -8.96,0.42 -3.56,0.05 -7.38,0.05 -11.46,0 -4.07,-0.05 -7.89,-0.12 -11.46,-0.21 -3.56,-0.09 -6.57,-0.18 -9.03,-0.28 -2.45,-0.09 -3.77,-0.14 -3.96,-0.14 -0.18,0 -0.3,-1.18 -0.35,-3.54 -0.05,-2.36 -0.05,-5.3 0,-8.82 0.05,-3.52 0.14,-7.36 0.28,-11.53 0.14,-4.17 0.25,-8.1 0.35,-11.8 0.09,-3.7 0.21,-6.9 0.35,-9.58 0.14,-2.68 0.21,-4.3 0.21,-4.86 0.09,-2.13 0.09,-4.7 0,-7.71 -0.09,-3.01 -0.23,-6.2 -0.42,-9.58 -0.18,-3.38 -0.37,-6.78 -0.55,-10.21 -0.19,-3.43 -0.35,-6.6 -0.49,-9.51 -0.14,-2.92 -0.16,-5.37 -0.07,-7.36 0.09,-1.99 0.32,-3.31 0.69,-3.96 0.37,-0.65 1.55,-1.02 3.54,-1.11 1.99,-0.09 4.24,-0.09 6.74,0 2.5,0.09 4.91,0.21 7.22,0.35 2.31,0.14 3.98,0.21 5,0.21zm53.05 0c0.56,0 1.44,-0.05 2.64,-0.14 1.2,-0.09 2.48,-0.16 3.82,-0.21 1.34,-0.05 2.52,0.02 3.54,0.21 1.02,0.19 1.57,0.6 1.67,1.25 0.37,1.85 0.02,4.81 -1.04,8.89 -1.07,4.07 -2.43,8.7 -4.1,13.89 -1.67,5.19 -3.45,10.67 -5.35,16.46 -1.9,5.79 -3.54,11.3 -4.93,16.53 -1.39,5.23 -2.29,9.93 -2.71,14.1 -0.42,4.17 0.07,7.27 1.46,9.3 1.3,1.94 2.87,3.33 4.72,4.17 1.85,0.83 3.63,1.2 5.35,1.11 1.71,-0.09 3.15,-0.58 4.31,-1.46 1.16,-0.88 1.64,-2.11 1.46,-3.68 -0.18,-1.48 -0.67,-2.57 -1.46,-3.26 -0.79,-0.69 -1.69,-1.02 -2.71,-0.97 -1.02,0.05 -2.01,0.46 -2.99,1.25 -0.97,0.79 -1.69,1.88 -2.15,3.26 -1.85,-0.74 -2.99,-1.94 -3.4,-3.61 -0.42,-1.67 -0.35,-3.56 0.21,-5.69 0.55,-2.13 1.43,-4.35 2.64,-6.67 1.2,-2.31 2.57,-4.51 4.1,-6.6 1.53,-2.08 3.08,-3.93 4.65,-5.55 1.57,-1.62 2.92,-2.75 4.03,-3.4 2.22,-1.3 4.31,-1.94 6.25,-1.94 1.94,0 3.7,0.37 5.28,1.11 -0.09,6.39 -0.02,12.48 0.21,18.26 0.23,5.79 0.49,10.93 0.76,15.42 0.28,4.49 0.46,8.19 0.55,11.11 0.09,2.92 -0.05,4.65 -0.42,5.21 -0.28,0.37 -1.62,0.67 -4.03,0.9 -2.41,0.23 -5.39,0.37 -8.96,0.42 -3.56,0.05 -7.38,0.05 -11.46,0 -4.07,-0.05 -7.89,-0.12 -11.46,-0.21 -3.56,-0.09 -6.57,-0.18 -9.03,-0.28 -2.45,-0.09 -3.77,-0.14 -3.96,-0.14 -0.18,0 -0.3,-1.18 -0.35,-3.54 -0.05,-2.36 -0.05,-5.3 0,-8.82 0.05,-3.52 0.14,-7.36 0.28,-11.53 0.14,-4.17 0.25,-8.1 0.35,-11.8 0.09,-3.7 0.21,-6.9 0.35,-9.58 0.14,-2.68 0.21,-4.3 0.21,-4.86 0.09,-2.13 0.09,-4.7 0,-7.71 -0.09,-3.01 -0.23,-6.2 -0.42,-9.58 -0.18,-3.38 -0.37,-6.78 -0.55,-10.21 -0.19,-3.43 -0.35,-6.6 -0.49,-9.51 -0.14,-2.92 -0.16,-5.37 -0.07,-7.36 0.09,-1.99 0.32,-3.31 0.69,-3.96 0.37,-0.65 1.55,-1.02 3.54,-1.11 1.99,-0.09 4.24,-0.09 6.74,0 2.5,0.09 4.91,0.21 7.22,0.35 2.31,0.14 3.98,0.21 5,0.21zm-182.48 117.07c0.37,-0.65 1.69,-1.04 3.96,-1.18 2.27,-0.14 4.72,-0.16 7.36,-0.07 2.64,0.09 5.07,0.23 7.29,0.42 2.22,0.18 3.52,0.28 3.89,0.28l22.64 -0.97c1.67,0 2.85,0.07 3.54,0.21 0.69,0.14 1.11,1.02 1.25,2.64 0.14,1.62 0.05,4.31 -0.28,8.05 -0.32,3.75 -0.67,9.24 -1.04,16.46 -1.39,-0.65 -3.12,-1 -5.21,-1.04 -2.08,-0.05 -4.07,-0.07 -5.97,-0.07 -1.9,0 -3.52,-0.18 -4.86,-0.56 -1.34,-0.37 -1.92,-1.2 -1.74,-2.5 0.93,0.28 1.78,0.12 2.57,-0.49 0.79,-0.6 1.32,-1.34 1.6,-2.22 0.28,-0.88 0.21,-1.78 -0.21,-2.71 -0.42,-0.93 -1.37,-1.57 -2.85,-1.94 -1.48,-0.28 -2.82,0 -4.03,0.83 -1.2,0.83 -2.11,1.92 -2.71,3.26 -0.6,1.34 -0.83,2.78 -0.69,4.31 0.14,1.53 0.81,2.75 2.01,3.68 1.2,0.93 2.62,1.5 4.24,1.74 1.62,0.23 3.29,0.49 5,0.76 1.71,0.28 3.38,0.79 5,1.53 1.62,0.74 3.03,2.04 4.24,3.89 1.2,1.76 2.04,3.77 2.5,6.04 0.46,2.27 0.72,4.65 0.76,7.15 0.05,2.5 0,5.02 -0.14,7.57 -0.14,2.55 -0.21,4.93 -0.21,7.15 -0.83,-0.55 -1.92,-1 -3.26,-1.32 -1.34,-0.32 -2.82,-0.72 -4.44,-1.18 -1.62,-0.46 -3.31,-1.11 -5.07,-1.94 -1.76,-0.83 -3.43,-2.08 -5,-3.75 -1.67,-1.67 -2.73,-3.33 -3.19,-5 -0.46,-1.67 -0.65,-3.15 -0.56,-4.44 0.09,-1.57 0.51,-3.01 1.25,-4.31 -0.74,1.02 -0.86,1.92 -0.35,2.71 0.51,0.79 1.23,1.32 2.15,1.6 0.93,0.28 1.9,0.18 2.92,-0.28 1.02,-0.46 1.76,-1.39 2.22,-2.78 0.28,-0.83 0.35,-1.74 0.21,-2.71 -0.14,-0.97 -0.44,-1.88 -0.9,-2.71 -0.46,-0.83 -1.09,-1.48 -1.87,-1.94 -0.79,-0.46 -1.69,-0.6 -2.71,-0.42 -1.11,0.18 -2.2,0.83 -3.26,1.94 -1.07,1.11 -1.94,2.57 -2.64,4.37 -0.69,1.81 -1.09,3.91 -1.18,6.32 -0.09,2.41 0.32,5.05 1.25,7.92 1.11,3.33 2.99,6.64 5.62,9.93 2.64,3.29 5.3,6.69 7.99,10.21 2.68,3.52 5.09,7.22 7.22,11.11 2.13,3.89 3.24,8.15 3.33,12.78 -1.3,0.28 -3.36,0.49 -6.18,0.63 -2.82,0.14 -5.97,0.21 -9.44,0.21 -3.47,0 -7.06,-0.02 -10.76,-0.07 -3.7,-0.05 -7.08,-0.12 -10.14,-0.21 -3.06,-0.09 -5.6,-0.18 -7.64,-0.28 -2.04,-0.09 -3.15,-0.18 -3.33,-0.28 -0.18,0 -0.32,-1.16 -0.42,-3.47 -0.09,-2.31 -0.12,-5.23 -0.07,-8.75 0.05,-3.52 0.14,-7.36 0.28,-11.53 0.14,-4.17 0.28,-8.1 0.42,-11.8 0.14,-3.7 0.25,-6.9 0.35,-9.58 0.09,-2.68 0.19,-4.3 0.28,-4.86 0.09,-2.13 0.09,-4.7 0,-7.71 -0.09,-3.01 -0.25,-6.2 -0.49,-9.58 -0.23,-3.38 -0.44,-6.78 -0.62,-10.21 -0.19,-3.43 -0.35,-6.6 -0.49,-9.51 -0.14,-2.92 -0.16,-5.37 -0.07,-7.36 0.09,-1.99 0.32,-3.31 0.69,-3.96zm76.24 -0.56c1.76,0.09 4.1,0.07 7.01,-0.07 2.92,-0.14 5.76,-0.3 8.54,-0.49 2.78,-0.18 5.25,-0.3 7.43,-0.35 2.18,-0.05 3.4,0.07 3.68,0.35 0.46,0.46 0.6,2.8 0.42,7.01 -0.18,4.21 -0.51,10.39 -0.97,18.54 -0.18,3.24 -1.25,5.97 -3.19,8.19 -1.94,2.22 -4.26,3.24 -6.94,3.06 -3.06,-0.09 -5.46,-0.6 -7.22,-1.53 -1.76,-0.93 -3.08,-1.94 -3.96,-3.06 -0.88,-1.11 -1.44,-2.17 -1.67,-3.19 -0.23,-1.02 -0.35,-1.67 -0.35,-1.94 1.2,-0.09 2.27,-0.56 3.19,-1.39 0.93,-0.83 1.6,-1.83 2.01,-2.99 0.42,-1.16 0.51,-2.34 0.28,-3.54 -0.23,-1.2 -0.9,-2.18 -2.01,-2.92 -1.11,-0.74 -2.22,-0.65 -3.33,0.28 -1.11,0.93 -2.01,2.34 -2.71,4.24 -0.7,1.9 -1.04,4.1 -1.04,6.6 0,2.5 0.6,4.95 1.81,7.36 1.02,2.31 2.87,4.17 5.55,5.56 2.69,1.39 5.65,2.13 8.89,2.22 2.04,0.09 3.68,0.62 4.93,1.6 1.25,0.97 2.24,2.2 2.99,3.68 0.74,1.48 1.25,3.06 1.53,4.72 0.28,1.67 0.42,3.24 0.42,4.72 -1.85,-0.18 -3.98,-0.32 -6.39,-0.42 -2.41,-0.09 -4.77,0.07 -7.08,0.49 -2.32,0.42 -4.44,1.16 -6.39,2.22 -1.94,1.07 -3.42,2.62 -4.44,4.65 -1.02,2.13 -1.53,4.42 -1.53,6.87 0,2.45 0.32,4.65 0.97,6.6 0.65,1.94 1.5,3.45 2.57,4.51 1.06,1.06 2.15,1.23 3.26,0.49 1.11,-0.65 1.78,-1.57 2.01,-2.78 0.23,-1.2 0.14,-2.39 -0.28,-3.54 -0.42,-1.16 -1.09,-2.18 -2.01,-3.06 -0.93,-0.88 -1.99,-1.37 -3.19,-1.46 0.09,-1.67 0.6,-3.19 1.53,-4.58 0.74,-1.2 1.94,-2.31 3.61,-3.33 1.67,-1.02 4.07,-1.62 7.22,-1.81 2.96,-0.18 5.44,0.83 7.43,3.06 1.99,2.22 3.08,5.04 3.26,8.47 0.28,6.85 0.55,12.59 0.83,17.22 0.28,4.63 0.19,7.31 -0.28,8.06 -0.28,0.46 -1.62,0.79 -4.03,0.97 -2.41,0.18 -5.39,0.3 -8.96,0.35 -3.56,0.05 -7.38,0.05 -11.46,0 -4.07,-0.05 -7.89,-0.14 -11.46,-0.28 -3.56,-0.14 -6.57,-0.25 -9.03,-0.35 -2.45,-0.09 -3.77,-0.14 -3.96,-0.14 -0.18,0 -0.3,-1.16 -0.35,-3.47 -0.05,-2.31 -0.05,-5.23 0,-8.75 0.05,-3.52 0.14,-7.34 0.28,-11.46 0.14,-4.12 0.25,-8.03 0.35,-11.74 0.09,-3.7 0.21,-6.9 0.35,-9.58 0.14,-2.69 0.21,-4.35 0.21,-5 0.09,-2.13 0.09,-4.7 0,-7.71 -0.09,-3.01 -0.23,-6.2 -0.42,-9.58 -0.18,-3.38 -0.37,-6.78 -0.55,-10.21 -0.19,-3.43 -0.35,-6.57 -0.49,-9.44 -0.14,-2.87 -0.16,-5.32 -0.07,-7.36 0.09,-2.04 0.32,-3.38 0.69,-4.03 0.37,-0.65 1.55,-1.04 3.54,-1.18 1.99,-0.14 4.24,-0.16 6.74,-0.07 2.5,0.09 4.91,0.23 7.22,0.42 2.31,0.18 3.98,0.28 5,0.28zm52.77 -0.14c1.76,0.19 3.89,0.25 6.39,0.21 2.5,-0.05 5.09,-0.12 7.78,-0.21 3.61,-0.18 6.62,1.3 9.03,4.44 2.41,3.06 3.52,6.76 3.33,11.11 -0.09,2.41 -0.19,5.07 -0.28,7.99 -0.09,2.92 -0.23,6.13 -0.42,9.65 -1.67,0.46 -3.54,0.83 -5.62,1.11 -2.08,0.28 -4.47,0.32 -7.15,0.14 -3.24,-0.19 -5.69,-0.79 -7.36,-1.81 -1.67,-1.02 -2.87,-2.13 -3.61,-3.33 -0.93,-1.39 -1.39,-2.96 -1.39,-4.72 1.2,-0.09 2.27,-0.56 3.19,-1.39 0.93,-0.83 1.6,-1.83 2.01,-2.99 0.42,-1.16 0.51,-2.31 0.28,-3.47 -0.23,-1.16 -0.9,-2.11 -2.01,-2.85 -1.11,-0.74 -2.24,-0.67 -3.4,0.21 -1.16,0.88 -2.08,2.27 -2.78,4.17 -0.69,1.9 -1.02,4.1 -0.97,6.6 0.05,2.5 0.62,5 1.74,7.5 1.02,2.13 2.87,3.61 5.56,4.44 2.69,0.83 5.56,1.34 8.61,1.53 0.83,0.18 1.69,0.42 2.57,0.69 0.88,0.28 1.74,0.55 2.57,0.83 2.13,1.02 3.89,2.68 5.28,5 1.39,2.31 2.08,4.95 2.08,7.92 0,5.93 0.12,11.09 0.35,15.48 0.23,4.4 0.42,8.24 0.55,11.53 0.14,3.29 0.12,6.13 -0.07,8.54 -0.18,2.41 -0.69,4.58 -1.53,6.53 -0.65,1.3 -2.31,2.31 -5,3.06 -2.69,0.74 -5.83,1.25 -9.44,1.53 -3.61,0.28 -7.43,0.42 -11.46,0.42 -4.03,0 -7.66,-0.09 -10.9,-0.28 -1.39,0 -2.73,-0.37 -4.03,-1.11 -1.3,-0.74 -2.41,-1.71 -3.33,-2.92 -0.93,-1.2 -1.67,-2.59 -2.22,-4.17 -0.56,-1.57 -0.83,-3.29 -0.83,-5.14 0,-2.96 0,-6.23 0,-9.79 0,-3.56 0.09,-7.11 0.28,-10.62 1.57,-0.46 3.52,-0.86 5.83,-1.18 2.32,-0.32 4.91,-0.39 7.78,-0.21 3.15,0.18 5.56,0.79 7.22,1.81 1.67,1.02 2.87,2.13 3.61,3.33 0.93,1.39 1.44,2.96 1.53,4.72 -1.3,0 -2.38,0.44 -3.26,1.32 -0.88,0.88 -1.53,1.88 -1.94,2.99 -0.42,1.11 -0.51,2.27 -0.28,3.47 0.23,1.2 0.9,2.18 2.01,2.92 1.11,0.74 2.22,0.65 3.33,-0.28 1.11,-0.93 2.01,-2.31 2.71,-4.17 0.69,-1.85 1.04,-4.03 1.04,-6.53 0,-2.5 -0.6,-4.95 -1.8,-7.36 -0.93,-2.13 -2.62,-3.63 -5.07,-4.51 -2.45,-0.88 -5.12,-1.41 -7.99,-1.6l-0.97 0c-1.02,-0.18 -2.04,-0.44 -3.06,-0.76 -1.02,-0.32 -1.99,-0.72 -2.92,-1.18 -2.22,-1.02 -3.96,-2.66 -5.21,-4.93 -1.25,-2.27 -1.88,-4.84 -1.88,-7.71 0,-3.52 -0.12,-7.06 -0.35,-10.62 -0.23,-3.56 -0.39,-7.04 -0.49,-10.42 -0.09,-3.38 0,-6.57 0.28,-9.58 0.28,-3.01 0.97,-5.72 2.08,-8.12 1.11,-2.32 2.61,-4.01 4.51,-5.07 1.9,-1.07 3.84,-1.74 5.83,-2.01 1.99,-0.28 3.87,-0.37 5.62,-0.28 1.76,0.09 3.1,0.14 4.03,0.14zm52.36 0.14c1.76,0.09 4.1,0.07 7.01,-0.07 2.92,-0.14 5.79,-0.3 8.61,-0.49 2.82,-0.18 5.3,-0.3 7.43,-0.35 2.13,-0.05 3.38,0.07 3.75,0.35 0.56,0.56 0.63,3.94 0.21,10.14 -0.42,6.2 -0.86,15.23 -1.32,27.08l-2.78 0c-3.15,-0.19 -5.56,-0.81 -7.22,-1.88 -1.67,-1.06 -2.87,-2.2 -3.61,-3.4 -0.93,-1.39 -1.44,-2.92 -1.53,-4.58 1.2,-0.09 2.29,-0.56 3.26,-1.39 0.97,-0.83 1.64,-1.83 2.01,-2.99 0.37,-1.16 0.44,-2.31 0.21,-3.47 -0.23,-1.16 -0.9,-2.11 -2.01,-2.85 -0.83,-0.56 -1.69,-0.63 -2.57,-0.21 -0.88,0.42 -1.67,1.18 -2.36,2.29 -0.69,1.11 -1.25,2.5 -1.67,4.17 -0.42,1.67 -0.53,3.43 -0.35,5.28 -0.28,2.31 -0.44,5.02 -0.49,8.12 -0.05,3.1 0.25,6.5 0.9,10.21 0.55,3.7 1.69,7.75 3.4,12.15 1.71,4.4 3.54,8.73 5.49,12.99 1.94,4.26 3.77,8.22 5.49,11.87 1.71,3.66 2.85,6.64 3.4,8.96 0.28,0.65 0.46,1.25 0.56,1.8 0.09,0.56 0.23,1.11 0.42,1.67 0.18,0.83 0.05,1.62 -0.42,2.36 -0.56,0.83 -1.16,1.3 -1.81,1.39 -2.04,0.28 -5.02,0.46 -8.96,0.56 -3.93,0.09 -8.08,0.12 -12.43,0.07 -4.35,-0.05 -8.56,-0.14 -12.64,-0.28 -4.07,-0.14 -7.22,-0.25 -9.44,-0.35 -0.83,0 -1.44,-0.42 -1.8,-1.25 -0.46,-0.74 -0.6,-1.57 -0.42,-2.5 0.09,-0.55 0.18,-1.11 0.28,-1.67 0.09,-0.55 0.23,-1.16 0.42,-1.8 0.56,-2.31 1.69,-5.3 3.4,-8.96 1.71,-3.66 3.56,-7.61 5.55,-11.87 1.99,-4.26 3.84,-8.59 5.56,-12.99 1.71,-4.4 2.85,-8.45 3.4,-12.15 0.93,-5.28 1.23,-9.88 0.9,-13.82 -0.32,-3.93 -0.72,-6.83 -1.18,-8.68 0,-0.19 -0.09,-0.7 -0.28,-1.53 -0.19,-0.83 -0.51,-1.69 -0.97,-2.57 -0.46,-0.88 -1.13,-1.67 -2.01,-2.36 -0.88,-0.69 -2.06,-1 -3.54,-0.9 -1.3,0.09 -2.06,0.67 -2.29,1.74 -0.23,1.07 -0.14,2.27 0.28,3.61 0.42,1.34 1.13,2.55 2.15,3.61 1.02,1.07 2.13,1.64 3.33,1.74 -0.09,1.67 -0.6,3.19 -1.53,4.58 -0.74,1.2 -1.94,2.34 -3.61,3.4 -1.67,1.07 -4.07,1.69 -7.22,1.88l-2.64 0c-0.18,-3.61 -0.42,-7.38 -0.69,-11.32 -0.28,-3.94 -0.49,-7.64 -0.63,-11.11 -0.14,-3.47 -0.21,-6.43 -0.21,-8.89 0,-2.45 0.23,-4.05 0.69,-4.79 0.37,-0.65 1.57,-1.04 3.61,-1.18 2.04,-0.14 4.31,-0.16 6.8,-0.07 2.5,0.09 4.91,0.23 7.22,0.42 2.31,0.18 3.93,0.28 4.86,0.28z"/>
 </g>
</svg>
