<svg xmlns="http://www.w3.org/2000/svg" viewBox="0 0 917.86 442.7"><defs><style>.cls-1,.cls-18,.cls-19{fill:#fff;}.cls-1,.cls-10,.cls-11,.cls-12,.cls-13,.cls-14,.cls-15,.cls-16,.cls-17,.cls-2,.cls-3,.cls-4,.cls-5,.cls-6,.cls-7,.cls-8,.cls-9{fill-rule:evenodd;}.cls-2{fill:#f7bd33;}.cls-3{fill:#bc8323;}.cls-4{fill:#d29929;}.cls-5{fill:#dfa72c;}.cls-6{fill:#d89e2a;}.cls-7{fill:#dea52c;}.cls-8{fill:#d49b29;}.cls-9{fill:#e1a92d;}.cls-10{fill:#dca32b;}.cls-11{fill:#d09727;}.cls-12{fill:#cf9628;}.cls-13{fill:#ce9528;}.cls-14{fill:#e4ab2d;}.cls-15{fill:#e6ad2e;}.cls-16{fill:#cd9427;}.cls-17{fill:#cc9327;}.cls-18,.cls-19{isolation:isolate;font-family:MyriadPro-Regular, Myriad Pro;}.cls-18{font-size:28.03px;}.cls-19{font-size:34.8px;}.cls-20{letter-spacing:0.01em;}.cls-21{letter-spacing:-0.01em;}.cls-22{letter-spacing:0em;}.cls-23{letter-spacing:-0.01em;}.cls-24{letter-spacing:0em;}.cls-25{letter-spacing:0em;}.cls-26{letter-spacing:-0.04em;}.cls-27{letter-spacing:-0.07em;}.cls-28{letter-spacing:0.01em;}.cls-29{letter-spacing:0em;}.cls-30{letter-spacing:0em;}</style></defs><g id="Layer_1" data-name="Layer 1"><g id="Layer_1-2" data-name="Layer_1"><g id="_1827705245136" data-name=" 1827705245136"><path class="cls-1" d="M506.61,369.7v28.8c0,.86-4.22,4-4.87,4.49-1.85,1.49-3.53,2.72-5.54,4.06-3.54,2.36-8.56,4.91-13.6,5.6-7.61,1.05-16.6,0-20.92-6.9-2-3.22-2.22-5.56-2.52-9.23a14.45,14.45,0,0,1,.17-2.1,13.78,13.78,0,0,1,.72-4.08c1.43-4.71,4.93-7.88,8.78-10.42.62-.4.95-.53,1.53-.87,5.59-3.21,13.15-5.48,19.63-6.77C493.86,371.51,502.86,369.7,506.61,369.7Zm-60.48-39.84c.58,1.09,1.13,2.05,1.68,3.12.32.63.53.87.88,1.52l2.56,4.64c.61,1.14,1.27,2.12,1.84,3.2l10.24-5.84c14.42-7.26,36.83-10.43,42,10.26a62,62,0,0,1,1.29,10.7L495.44,359c-13.1,2.11-28.47,5.17-39.33,12.27-5.38,3.53-9.6,7.69-12.21,13.71-5.87,13.59-1.15,33.5,14.5,39.88,17.18,7,34.53-.28,47.9-11.32.64-.54,1-1,2-1.13,0,2.43,1.44,9.9,1.44,12.48h15.12v-66c0-16.5-5.06-32.2-18.64-39-12.56-6.25-30.31-4-42.66.94a93.33,93.33,0,0,0-17.42,9Z" transform="translate(-41.8 -36.34)"/><path class="cls-1" d="M259.17,330.58c6.23,0,8.85,0,14.41,2.88,9.91,5.12,13.19,18.07,13.19,30h-56.4a52.41,52.41,0,0,1,2.95-12.41c2.92-7.32,7.2-12.9,13.84-16.88A24.9,24.9,0,0,1,259.17,330.58Zm-46.32,44.54v-5.9a61.47,61.47,0,0,1,7.94-29c2.5-4.38,3.91-5.62,6.5-8.86,5-6.22,13-10.82,20.51-13.33,10-3.33,23.26-2.1,32.33,2.41a36.79,36.79,0,0,1,6.54,4.26,23.71,23.71,0,0,1,4.13,4,42.08,42.08,0,0,1,8.73,15.51c3.14,9.42,3.08,15.85,3.08,25.71,0,2.49-.48,4.32-.48,6.48H230.61a57,57,0,0,0,2,11.47c1.14,4.05,4.08,10.15,6.86,13.31a30.39,30.39,0,0,0,3.24,3.47,41.79,41.79,0,0,0,3.82,2.91c10.32,6.9,25.33,6.94,37.15,1.72,3.85-1.7,5.37-2.83,8.64-4.56l4.72,9a21,21,0,0,1,1.52,3c-1.2.64-2.16,1.39-3.44,2.08-8.39,4.57-18.27,8.72-28.48,8.72s-16.91-.52-25.92-5c-14.29-7.16-23.41-20.25-26.5-35.9a56.11,56.11,0,0,1-1.34-11.48Z" transform="translate(-41.8 -36.34)"/><path class="cls-1" d="M727.65,389.62c0,10.51,2.86,20.49,7.2,26.64,5.11,7.23,13.78,11.28,22.8,11.28,6.9,0,8.43.17,15.21-2.06,8.12-2.68,14.94-8.76,20.49-15,.59-.67,1.26-.94,1.5-1.87h1c0,4.15,1.06,11.72,1.44,16.32h14.88V318.82h-18v75.12c0,.92-7.18,8.26-8,9.07a28.64,28.64,0,0,1-21.07,8.93c-6.69,0-11.82-2.29-15.17-7.63-2.68-4.28-4-11.81-4-18.77V318.82H727.65v70.8Z" transform="translate(-41.8 -36.34)"/><path class="cls-1" d="M345.33,333.94c0-3.59-1.44-11.15-1.44-15.12H328.77V424.9h18V348.58c0-.85,5.67-5.86,6.78-6.9,5.21-4.85,13.23-9.9,21.3-9.9,11.8,0,17.56,4.65,19.91,16.34a55.74,55.74,0,0,1,1,10.54V424.9h18V353.62c0-9.78-3.09-20.74-7.26-26.33a26.35,26.35,0,0,0-9-7.83,13.14,13.14,0,0,0-1.34-.57c-8-3.43-19.52-3.8-27.61-.62-1.65.65-3,1.14-4.57,1.91a50.45,50.45,0,0,0-8,4.95L348.87,331c-.58.56-1,1-1.56,1.56s-.89,1.29-2,1.38Z" transform="translate(-41.8 -36.34)"/><path class="cls-1" d="M841.17,345c0,6.62.87,10.58,4.42,15.5,10.24,14.18,33.63,16.14,45.16,25.16,3.22,2.52,6.28,6,6.27,11.42a15,15,0,0,1-5.58,11.87,18.2,18.2,0,0,1-5.78,3.11c-8.93,3-20.25,1-28.17-3a61.81,61.81,0,0,1-9.63-6c-.82-.6-2.18-2-3.09-2.2-1.41,2.12-3,3.93-4.46,6.1-.75,1.09-1.51,2-2.26,3-.38.52-.7,1-1.13,1.51a4.56,4.56,0,0,0-1,1.61c.85.23.53.23,1.18.75l3.28,2.47a50.91,50.91,0,0,0,4.75,2.94A65.59,65.59,0,0,0,868,427.14c11,1.61,28.09-.56,36.38-8.89,4.65-4.68,7.09-7.55,8.95-14.08a29.07,29.07,0,0,0,1.06-6.62v-3.14a26.09,26.09,0,0,0-3.93-13.09,33.52,33.52,0,0,0-11.2-10.17c-6.45-3.73-14.38-6.37-21.25-9a73.67,73.67,0,0,1-11.72-5.31c-3.3-2-7.12-5.08-7.56-9.72-1-10.87,7.88-16.79,17.26-16.79,6.4,0,10.52.38,16.09,3.12a48.52,48.52,0,0,1,7.58,4.42,10.28,10.28,0,0,0,2.49,1.58l6.35-8.29a13.75,13.75,0,0,0,2-3c-.75-1.12-4.51-3.49-5.8-4.27-.81-.49-1.4-.89-2.27-1.33a52.25,52.25,0,0,0-9.78-4.15c-12.95-4.35-32.84-2.92-42.93,7.29-4.89,4.95-8.58,11.63-8.58,19.26Z" transform="translate(-41.8 -36.34)"/><path class="cls-1" d="M659,318.82l-6.24.24c-3,.15-6.55.72-10.32.72v13.68h15.84v61.92c0,8.13,2.27,16.89,6.82,22.71a23.06,23.06,0,0,0,7.5,6.17,32.89,32.89,0,0,0,12.8,3.29,19.56,19.56,0,0,1,2.55.1c2.34.29,9.7-.94,11.9-1.5,1.58-.39,2.82-.7,4.36-1.16.84-.25,1.15-.38,2-.62,2.86-.76,2.21-.14.34-7.67-.57-2.3-1.19-4.39-1.73-6.68-3.26.76-6,2.27-9.86,2.62-13.1,1.2-18.46-6.23-18.46-18.7V333.46l51.12.19V318.82c.05-.15-46.23,0-51.12-.24V289.06H661.17c0,2.63-.44,5-.48,7.44s-.3,5-.49,7.43L659,318.82Z" transform="translate(-41.8 -36.34)"/><path class="cls-1" d="M550.05,372.1c0,12.24,3.08,25.57,9.74,35.14a45.4,45.4,0,0,0,17.06,15.1c8.89,4.41,15,5.2,25.28,5.2,9.4,0,21.75-4.86,29-10.85.56-.47,1-.82,1.6-1.28s1-.91,1.57-1.31l-7.92-12.24c-1.5,1-3.51,3.26-7.54,5.67-1,.59-1.9,1.12-2.93,1.62-10.64,5.06-22.21,4.79-31.87-1.91a35.67,35.67,0,0,1-4.84-4.28c-3.82-4.92-6.08-7.83-8.17-15.1-4.1-14.23-2.62-32.33,6.36-44.35a28.56,28.56,0,0,1,5.52-5.76l2.81-2c.59-.36.86-.6,1.46-.94,9.67-5.36,20-4.88,29.29.64,1,.57,1.41,1,2.28,1.56l4.27,3.4c.74-.49,7-8.79,8.16-10.32a8.18,8.18,0,0,0,1.2-1.68,18.24,18.24,0,0,1-2.8-2.23c-7-5.61-16.23-10-25.76-10-10.61,0-16.63.79-25.84,5.36a44.12,44.12,0,0,0-7.89,5.07c-.61.47-1.21.9-1.73,1.39l-5,5c-.48.51-.93,1.13-1.4,1.72s-.91,1.2-1.44,1.92c-3.16,4.37-4.67,7.81-6.68,13-2.23,5.77-3.74,14.55-3.74,22.42Z" transform="translate(-41.8 -36.34)"/></g><g id="_1827702926992" data-name=" 1827702926992"><path class="cls-2" d="M151.35,234.34c.92,1.37.56,3.75.56,6.24v88.56c0,1.15.34,12.24-.26,13.25-.2-.3-.05.08-.24-.57s-.18-1.86-.62-3.44a12.06,12.06,0,0,1-.26-4.3s-.09-.17-.1-.14-.09-.11-.1-.15a1.83,1.83,0,0,1-.22-.55l-1.61-13.79c-.21-3.72-.49-3.31-.63-5.17-.2-2.77-2.35-19.6-2-20.62a13.1,13.1,0,0,1-.77-5.89l.22-.12-.76-2.68c-.11-1-.1-2.07-.16-3-.12-2-.56-3.7-.68-5.87-.16-2.8-1.56-9.18-1.27-11.65.31-1.57-.32-2.71-.15-4-.77-.71-.37-1.74-.67-3.42-.62-3.47-1.11-11-1.56-12.77l-.87-10H45.09c-1.52,0-4.25-.51-3,1.24,1,1.37,32,31.78,36.29,36.23l2.65,2.63.12.12,10.55,10.57a.68.68,0,0,1,.12.12l7.6,7.51.12.12.36.36,41.68,41.6c1.55,1.55,9,9.23,10,9.9L261.25,235.3c.1-.73.39-1.57,1.18-1.56.27-.74.1-.37.69-1l24.43-24.54c.9-.81.1-.35.9-.51.28-.71,0-.28.94-1.24,1.43-1.39,6.4-6.67,7.25-6.91.44-1.4,5.44-5.25,6.05-6.51l.64-.47a2.22,2.22,0,0,1,1.84-1.4c-.14.79.1.46-.38,1.16a2.2,2.2,0,0,1-.58.52l0,.19-.84,1.17-.25.19c-.17.42-.13.44-.39.71s0,.05-.48.24a3.35,3.35,0,0,1-1,1.71l-3,4.41s-.1.07-.15.1a2,2,0,0,1-1.11,1.48c0,.52.26.08-.21.78-.28.41-.08.08-.45.25-.16.79-.09.49-.69,1.14-.34.67,0,.18-.52.31-.11.8.32-.1-.29.88a2,2,0,0,1-.38.41,2.62,2.62,0,0,1-1.07,1.54l-.31.43c-.08.33,0,.86-.55.84a2.94,2.94,0,0,1-1.39,1.94c0,.61.11.1-.35.21,0,.83.05.39-.42,1-.24.71.06.22-.35.78-.18.24-.21.19-.4.31l-.23.49c0,.4.08.25-.41.27-.26.89-1.09,1.42-1.39,2.31a11.45,11.45,0,0,1-.61,1c0,.06-.27.35-.32.4-.31.3-.13.1-.44.27-.06.47.26.07-.22.74s-.36.28-.71.52l-.14.42a10.29,10.29,0,0,1-.82,1.47c-.28.49,0,.21-.37.58s-.21.18-.64.34l-.08.49a3.61,3.61,0,0,1-1,1.48l-.37.16c0,.19.22.67-.36.64a10.38,10.38,0,0,1-1.21,2l-.64.94-.58.59a15,15,0,0,1-2.83,4.14c-.12.41.05.23-.28.67-.64.84-.07.12-.56.4v.76h74.66c0-1.59-1.55-2.39-2.58-3.42l-23.28-23.28c-.29-.29-.42-.43-.72-.71l-.38-.34-.13-.11L243.4,127.72c-.31-.3-.44-.42-.75-.69L234,118.38l-.37-.34-.37-.35L224,108.48c-.31-.33-.52-.6-.79-.88l-6.29-6.19-.7-.74-1.82-1.79-.12-.12-.6-.59-.12-.12L152.42,37a2.45,2.45,0,0,0-.4-.32c-.36-.25-.12-.17-.61-.35l-.06,198Z" transform="translate(-41.8 -36.34)"/><path class="cls-3" d="M142.29,260.52c-.17,1.26.46,2.4.15,4l1.62,11.61c.25,3,1.44,8.89,1.25,11.55l-.22.12c.3.42.08-.45.38.8a19.81,19.81,0,0,1,.39,5.09l.31,1.15c.61,3.94.83,7.61,1.27,11.33.14,1.19.39,1.34.48,2.37.17,1.84.17,3.41.43,5.26.38,2.66,2.45,18.81,2.18,20.31.61.92.31.83.31.83a12.1,12.1,0,0,0,.33,2.07c.33-.68.45-92.89.19-101.67-1.58-.44-9.59-.17-11.82-.16a18.78,18.78,0,0,1,.44,3.27,15.24,15.24,0,0,0,.3,3.2l2,18.9Z" transform="translate(-41.8 -36.34)"/><path class="cls-3" d="M296.64,199.57c-.34.77-3.2,3.38-4,4.2s-1.32,1.3-2.06,2-1.39,1.65-2.17,1.92c-.39.83-17.32,17.51-19.45,19.65-.67.67-5.61,6.09-6.57,6.37a5,5,0,0,0-.54,1.56h13c0-.33-.05-.36.15-.66.36-.52-.07-.16.45-.34.05-.32-.21-.19.21-.71s.27-.23.62-.36c.07-.62-.06-.24.2-.75l1.11-1.55c.67-1,.71-1.43,1.53-1.84,0-.62-.12-.21.13-.68.27-.64.13-.47.67-.94.29-.53.43-.68.72-1.16.15-.23,0-.22.41-.54s0-.05.5-.23l.06-.41c0-.38-.09-.28.3-.23,0-.61-.41.39.16-.74,0,0,.35-.47.42-.58.48-.68,0-.5.86-.81a11.61,11.61,0,0,1,.87-1.68c.28-.37.38-.51.63-.9l.29-.43a5,5,0,0,1,.38-.47l.73-.59c.15-.73.1-.41.47-1a11.94,11.94,0,0,1,1.18-1.88,10.09,10.09,0,0,1,.58-.87c.12-.17.16-.26.29-.42.27-.32.1-.13.38-.33l.81-1.38.86-1a2.12,2.12,0,0,1,1.05-1.54c.68-1,.13-.35.69-.61l0-.41c.26-.82,0-.09.52-.43l.31-.43c.14-.58.12-.83.49-1.07a2.52,2.52,0,0,1,1.25-1.76c.11-.44,0-.12.22-.55,0,0,.12-.06.14-.16s.1-.09.15-.14a3.05,3.05,0,0,1,.26-.31s.27-.18.28-.2.11-.06.16-.09c.09-.61-.17-.13.22-.72.26-.39.09-.14.44-.31a1.59,1.59,0,0,1,.4-1c.62-.8.29-.33.71-.49.15-1.41,1.81-2.68,2.35-4.07a9.72,9.72,0,0,0,.84-1.16c.41-.67.3-.69.93-1,.23-.7,0-.23.46-.89.16-.75.17-.35-.12-.68L297.49,199c-.67.73-.32.45-.85.58Z" transform="translate(-41.8 -36.34)"/><path class="cls-4" d="M142.29,260.52l-2-18.9a15.24,15.24,0,0,1-.3-3.2,18.78,18.78,0,0,0-.44-3.27c2.23,0,10.24-.28,11.82.16.26,8.78.14,101-.19,101.67a12.1,12.1,0,0,1-.33-2.07s.3.09-.31-.83a12.06,12.06,0,0,0,.26,4.3c.44,1.58.42,2.76.62,3.44s0,.27.24.57c.6-1,.26-12.1.26-13.25V240.58c0-2.49.36-4.87-.56-6.24H139.19l.87,10c.45,1.82.94,9.3,1.56,12.77.3,1.68-.1,2.71.67,3.42Z" transform="translate(-41.8 -36.34)"/><path class="cls-5" d="M150.53,334.08c.27-1.5-1.8-17.65-2.18-20.31-.26-1.85-.26-3.42-.43-5.26-.09-1-.34-1.18-.48-2.37-.44-3.72-.66-7.39-1.27-11.33l-.31-1.15c-.34,1,1.81,17.85,2,20.62.14,1.86.42,1.45.63,5.17l1.61,13.79a1.83,1.83,0,0,0,.22.55s.08.19.1.15.06.1.1.14Z" transform="translate(-41.8 -36.34)"/><path class="cls-6" d="M262.43,233.74c1-.28,5.9-5.7,6.57-6.37,2.13-2.14,19.06-18.82,19.45-19.65-.8.16,0-.3-.9.51l-24.43,24.54C262.53,233.37,262.7,233,262.43,233.74Z" transform="translate(-41.8 -36.34)"/><path class="cls-7" d="M145.31,287.65c.19-2.66-1-8.55-1.25-11.55l-1.62-11.61c-.29,2.47,1.11,8.85,1.27,11.65.12,2.17.56,3.89.68,5.87.06.89.05,2,.16,3l.76,2.68Z" transform="translate(-41.8 -36.34)"/><path class="cls-8" d="M303.33,192.59l-.64.47c-.61,1.26-5.61,5.11-6.05,6.51.53-.13.18.15.85-.58l5.12-5.19c.29.33.28-.07.12.68l.41-.06.25-.19c.17-.33,0-.2.29-.58a1.87,1.87,0,0,1,.55-.59l0-.19.2-.86a2.55,2.55,0,0,0-.63.28l-.45.3Z" transform="translate(-41.8 -36.34)"/><path class="cls-4" d="M288.45,207.72c.78-.27,1.56-1.32,2.17-1.92s1.23-1.14,2.06-2,3.62-3.43,4-4.2c-.85.24-5.82,5.52-7.25,6.91C288.41,207.44,288.73,207,288.45,207.72Z" transform="translate(-41.8 -36.34)"/><path class="cls-7" d="M145.86,293.66a19.81,19.81,0,0,0-.39-5.09c-.3-1.25-.08-.38-.38-.8A13.1,13.1,0,0,0,145.86,293.66Z" transform="translate(-41.8 -36.34)"/><path class="cls-9" d="M276.3,233.23a15,15,0,0,0,2.83-4.14c-.82.41-.86.83-1.53,1.84l-1.11,1.55C276.23,233,276.36,232.61,276.3,233.23Z" transform="translate(-41.8 -36.34)"/><path class="cls-10" d="M300.5,197.52c-.54,1.39-2.2,2.66-2.35,4.07.05,0,.13-.14.15-.1l3-4.41-.77.44Z" transform="translate(-41.8 -36.34)"/><path class="cls-11" d="M286.73,217.68l.53-.41.18-.13.19-.13c.3-.89,1.13-1.42,1.39-2.31l.14-.52c-.28.2-.11,0-.38.33-.13.16-.17.25-.29.42a10.09,10.09,0,0,0-.58.87,11.94,11.94,0,0,0-1.18,1.88Z" transform="translate(-41.8 -36.34)"/><path class="cls-9" d="M303.33,192.59l.45-.3a2.55,2.55,0,0,1,.63-.28l-.2.86a2.2,2.2,0,0,0,.58-.52c.48-.7.24-.37.38-1.16a2.22,2.22,0,0,0-1.84,1.4Z" transform="translate(-41.8 -36.34)"/><path class="cls-5" d="M284.23,221.09a11.61,11.61,0,0,0-.87,1.68c.43-.16.22.08.64-.34s.09-.09.37-.58a10.29,10.29,0,0,0,.82-1.47,3.4,3.4,0,0,0-.53.35c-.14.1-.26.29-.29.24S284.28,221.05,284.23,221.09Z" transform="translate(-41.8 -36.34)"/><path class="cls-6" d="M279.93,227.47l.42.09a10.38,10.38,0,0,0,1.21-2c-.46.18-.08-.13-.5.23s-.26.31-.41.54c-.29.48-.43.63-.72,1.16Z" transform="translate(-41.8 -36.34)"/><path class="cls-5" d="M261.25,235.3h.64a5,5,0,0,1,.54-1.56C261.64,233.73,261.35,234.57,261.25,235.3Z" transform="translate(-41.8 -36.34)"/><path class="cls-11" d="M300.5,197.52l.77-.44a3.35,3.35,0,0,0,1-1.71c-.63.3-.52.32-.93,1A9.72,9.72,0,0,1,300.5,197.52Z" transform="translate(-41.8 -36.34)"/><path class="cls-12" d="M281.92,224.9l.37-.16c.18-.57,0-.25.32-.81a3,3,0,0,1,.22-.28,2.38,2.38,0,0,1,.45-.39l.08-.49c-.84.31-.38.13-.86.81-.07.11-.41.54-.42.58-.57,1.13-.15.13-.16.74Z" transform="translate(-41.8 -36.34)"/><path class="cls-11" d="M293.92,207.31c.05-.06.14-.21.18-.16s.14-.11.2-.16l.2-.15a2,2,0,0,0,.38-.41c.61-1,.18-.08.29-.88A2.52,2.52,0,0,0,293.92,207.31Z" transform="translate(-41.8 -36.34)"/><path class="cls-9" d="M291.88,210.26c-.37,1,.05,0-.29.58l-.41.76a3,3,0,0,0,1.39-1.95C292,209.91,292.56,209.21,291.88,210.26Z" transform="translate(-41.8 -36.34)"/><path class="cls-9" d="M297,203.07a2,2,0,0,0,1.11-1.48c-.42.16-.09-.31-.71.49a1.59,1.59,0,0,0-.4,1Z" transform="translate(-41.8 -36.34)"/><path class="cls-9" d="M286.73,217.68c-.37.61-.32.29-.47,1,.31-.17.13,0,.44-.27.05-.05.27-.34.32-.4a11.45,11.45,0,0,0,.61-1l-.19.13-.18.13Z" transform="translate(-41.8 -36.34)"/><path class="cls-5" d="M293.92,207.31c-.37.24-.35.49-.49,1.07a2.62,2.62,0,0,0,1.07-1.54l-.2.15c-.06,0-.16.21-.2.16s-.13.1-.18.16Z" transform="translate(-41.8 -36.34)"/><path class="cls-5" d="M285.53,219.29l-.2.67c.35-.24.32,0,.71-.52s.16-.27.22-.74Z" transform="translate(-41.8 -36.34)"/><path class="cls-13" d="M290.83,211.8c.46-.11.31.4.35-.2l.41-.76c.34-.6-.08.41.29-.58a2.12,2.12,0,0,0-1.05,1.54Z" transform="translate(-41.8 -36.34)"/><path class="cls-5" d="M275.46,234.3c.49-.28-.08.44.56-.4.33-.44.16-.26.27-.67-.35.13-.29,0-.62.36S275.51,234,275.46,234.3Z" transform="translate(-41.8 -36.34)"/><path class="cls-10" d="M274.86,235.3c.48-.17.28,0,.61-.24v-.76c-.52.18-.09-.18-.45.34C274.81,234.94,274.89,235,274.86,235.3Z" transform="translate(-41.8 -36.34)"/><path class="cls-9" d="M296.38,204.1c.37-.17.17.16.45-.25.47-.7.17-.26.21-.78-.35.17-.18-.08-.44.31-.39.59-.13.11-.22.72Z" transform="translate(-41.8 -36.34)"/><path class="cls-11" d="M284.23,221.09s.11-.17.14-.12.15-.14.29-.24a3.4,3.4,0,0,1,.53-.35l.14-.42.2-.67a5,5,0,0,0-.38.47l-.29.43c-.25.39-.35.53-.63.9Z" transform="translate(-41.8 -36.34)"/><path class="cls-5" d="M302.27,195.37c.45-.19.1.17.48-.24s.22-.29.39-.71l-.41.06C302.3,195.14,302.5,194.67,302.27,195.37Z" transform="translate(-41.8 -36.34)"/><path class="cls-14" d="M289.66,213.94c.19-.12.22-.07.4-.31.41-.56.11-.07.35-.78l-.44,0a4.48,4.48,0,0,1-.31,1.14Z" transform="translate(-41.8 -36.34)"/><path class="cls-9" d="M295.68,204.7v.54c.6-.65.53-.35.69-1.14-.05,0-.14,0-.16.09s-.25.17-.28.2A3.05,3.05,0,0,0,295.68,204.7Z" transform="translate(-41.8 -36.34)"/><path class="cls-11" d="M290,212.8l.44,0c.47-.66.38-.22.42-1l-.86,1Z" transform="translate(-41.8 -36.34)"/><path class="cls-15" d="M282.29,224.74a3.61,3.61,0,0,0,1-1.48,2.38,2.38,0,0,0-.45.39,3,3,0,0,0-.22.28c-.35.56-.14.24-.32.81Z" transform="translate(-41.8 -36.34)"/><path class="cls-16" d="M279.26,228.41l.45.09c.09-.45.1-.57.22-1-.54.47-.4.3-.67.94Z" transform="translate(-41.8 -36.34)"/><path class="cls-9" d="M292.57,209.65c.57,0,.47-.51.55-.84-.55.34-.26-.39-.52.43Z" transform="translate(-41.8 -36.34)"/><path class="cls-17" d="M289.16,214.18c.09-.06.42-.19.5-.24a4.48,4.48,0,0,0,.31-1.14Z" transform="translate(-41.8 -36.34)"/><path class="cls-11" d="M295.17,205.55c.56-.13.18.36.52-.31v-.54c-.05.05-.14,0-.15.14s-.12.12-.14.16C295.15,205.43,295.28,205.11,295.17,205.55Z" transform="translate(-41.8 -36.34)"/><path class="cls-14" d="M289.16,214.18l-.14.52c.49,0,.41.13.41-.27l.23-.49C289.58,214,289.25,214.12,289.16,214.18Z" transform="translate(-41.8 -36.34)"/><path class="cls-15" d="M279.71,228.5l.64-.94-.42-.09C279.81,227.93,279.8,228.05,279.71,228.5Z" transform="translate(-41.8 -36.34)"/><path class="cls-5" d="M281.56,225.54c.58,0,.36-.45.36-.64-.39-.05-.3-.15-.3.23Z" transform="translate(-41.8 -36.34)"/><path class="cls-5" d="M279.13,229.09l.58-.59-.45-.09c-.25.47-.11.06-.13.68Z" transform="translate(-41.8 -36.34)"/><path class="cls-14" d="M303.39,194.23l.84-1.17a1.87,1.87,0,0,0-.55.59C303.42,194,303.56,193.9,303.39,194.23Z" transform="translate(-41.8 -36.34)"/><path class="cls-14" d="M302.69,193.06l.64-.47Z" transform="translate(-41.8 -36.34)"/></g><text class="cls-18" transform="translate(881.76 401.92)">™</text><text class="cls-19" transform="translate(168.01 434)"><tspan class="cls-20">I</tspan><tspan x="8.66" y="0">nstitu</tspan><tspan class="cls-21" x="92.11" y="0">t</tspan><tspan class="cls-22" x="103.42" y="0">e of </tspan><tspan class="cls-20" x="164.87" y="0">I</tspan><tspan x="173.54" y="0">n</tspan><tspan class="cls-23" x="192.85" y="0">f</tspan><tspan x="202.56" y="0">o</tspan><tspan class="cls-24" x="221.66" y="0">r</tspan><tspan x="233.18" y="0">m</tspan><tspan class="cls-25" x="262.2" y="0">a</tspan><tspan x="278.84" y="0">tion</tspan><tspan class="cls-26" x="336.91" y="0"> </tspan><tspan class="cls-27" x="342.86" y="0">T</tspan><tspan x="357.69" y="0">echnology &amp; </tspan><tspan class="cls-28" x="547.41" y="0">M</tspan><tspan x="575.59" y="0">anageme</tspan><tspan class="cls-29" x="711.79" y="0">n</tspan><tspan class="cls-30" x="730.96" y="0">t </tspan></text></g></g></svg>